<?xml version="1.0" encoding="UTF-8"?>
<svg width="134px" height="32px" viewBox="0 0 134 32" version="1.1" xmlns="http://www.w3.org/2000/svg" xmlns:xlink="http://www.w3.org/1999/xlink" style="background: #FFFFFF;">
    <!-- Generator: Sketch 43.1 (39012) - http://www.bohemiancoding.com/sketch -->
    <title>logo</title>
    <desc>Created with Sketch.</desc>
    <defs></defs>
    <g stroke="none" stroke-width="1" fill="none" fill-rule="evenodd">
        <g fill="#DD4422">
            <path d="M7.1086351,13.9331476 L2,13.9331476 L2,10.5793872 L7.30362117,10.3844011 L7.88857939,5.15877437 L11.5933148,5.15877437 L11.5933148,10.3844011 L20.3286908,10.3844011 L20.3286908,13.9331476 L11.5933148,13.9331476 L11.5933148,21.810585 C11.5933148,23.3964796 11.9182883,24.5598849 12.5682451,25.3008357 C13.2182019,26.0417864 14.3621088,26.4122563 16,26.4122563 C16.8319447,26.4122563 17.5858833,26.3407621 18.2618384,26.1977716 C18.9377935,26.0547811 19.5877406,25.8662964 20.2116992,25.632312 L21.0696379,28.908078 C20.2116949,29.194059 19.2627721,29.4475384 18.2228412,29.6685237 C17.1829103,29.889509 16.0780003,30 14.908078,30 C13.4521747,30 12.2302742,29.8050159 11.2423398,29.4150418 C10.2544055,29.0250677 9.45497056,28.4726127 8.84401114,27.7576602 C8.23305173,27.0427077 7.79108772,26.1782781 7.51810585,25.1643454 C7.24512398,24.1504128 7.1086351,23.0325038 7.1086351,21.810585 L7.1086351,13.9331476 Z M25.157255,24.3844011 C25.157255,23.3184719 25.4042349,22.3760487 25.8982021,21.5571031 C26.3921693,20.7381575 27.1721057,20.0427141 28.2380349,19.4707521 C29.3039641,18.8987901 30.668853,18.4308282 32.3327425,18.0668524 C33.9966319,17.7028765 36.0114679,17.4428977 38.3773107,17.2869081 C38.2993159,16.1949806 37.9093476,15.2980536 37.2073943,14.5961003 C36.5054409,13.8941469 35.374533,13.5431755 33.8146366,13.5431755 C32.7227091,13.5431755 31.6502965,13.7446591 30.5973664,14.1476323 C29.5444364,14.5506055 28.5240194,15.0250669 27.5360851,15.5710306 L25.8982021,12.5682451 C27.0681244,11.89229 28.4070153,11.2813398 29.9149152,10.735376 C31.422815,10.1894123 32.9956869,9.91643454 34.6335781,9.91643454 C37.3114002,9.91643454 39.352234,10.6248769 40.7561408,12.0417827 C42.1600475,13.4586886 42.8619904,15.5060219 42.8619904,18.183844 L42.8619904,29.5320334 L39.1962522,29.5320334 L38.8452773,27.1532033 L38.7282856,27.1532033 C37.714353,27.9331515 36.5899445,28.602597 35.3550266,29.1615599 C34.1201086,29.7205228 32.8527118,30 31.5527982,30 C30.6168603,30 29.7589302,29.8635111 28.978982,29.5905292 C28.1990338,29.3175474 27.5230889,28.9340786 26.9511269,28.4401114 C26.3791649,27.9461442 25.9372008,27.3546924 25.6252216,26.6657382 C25.3132423,25.9767839 25.157255,25.2163458 25.157255,24.3844011 Z M29.4859458,24.0334262 C29.4859458,24.8913692 29.8174188,25.5153184 30.4803748,25.9052925 C31.1433307,26.2952666 31.9557646,26.4902507 32.9177007,26.4902507 C33.8796368,26.4902507 34.8090611,26.2757682 35.7060015,25.8467967 C36.6029419,25.4178252 37.4933694,24.8523712 38.3773107,24.1504178 L38.3773107,20.0947075 C36.6614247,20.2246989 35.2315411,20.4001846 34.0876171,20.6211699 C32.9436931,20.8421552 32.0337672,21.1216325 31.3578121,21.45961 C30.681857,21.7975876 30.2008962,22.1810564 29.9149152,22.6100279 C29.6289342,23.0389994 29.4859458,23.5134607 29.4859458,24.0334262 Z M47.9245378,19.9777159 C47.9245378,18.3918212 48.217014,16.9749366 48.8019752,15.7270195 C49.3869363,14.4791024 50.1733723,13.4261881 51.1613066,12.5682451 C52.149241,11.7103021 53.3061468,11.0538556 54.6320587,10.5988858 C55.9579706,10.143916 57.3488574,9.91643454 58.8047607,9.91643454 C60.3646571,9.91643454 61.7360454,10.1764134 62.9189668,10.6963788 C64.1018882,11.2163443 65.0963073,11.8532924 65.9022537,12.6072423 L63.7574069,15.4150418 C63.003457,14.8170815 62.2430189,14.3621186 61.4760699,14.0501393 C60.7091208,13.73816 59.896687,13.5821727 59.038744,13.5821727 C57.1148718,13.5821727 55.5549988,14.1606256 54.3590782,15.3175487 C53.1631577,16.4744719 52.5652064,18.0278454 52.5652064,19.9777159 C52.5652064,20.939652 52.7211937,21.8105811 53.0331729,22.5905292 C53.3451522,23.3704774 53.7806168,24.0399229 54.3395796,24.5988858 C54.8985425,25.1578487 55.567988,25.5868137 56.3479362,25.8857939 C57.1278844,26.184774 57.9858145,26.3342618 58.9217523,26.3342618 C60.0136798,26.3342618 61.0080988,26.1262788 61.9050392,25.7103064 C62.8019796,25.294334 63.6274124,24.8003743 64.3813623,24.2284123 L66.2532286,27.1142061 C65.1613012,28.0761422 63.9394007,28.7975835 62.5874905,29.2785515 C61.2355803,29.7595196 59.8706914,30 58.492783,30 C56.9848831,30 55.5874969,29.779018 54.3005824,29.3370474 C53.0136679,28.8950767 51.8957589,28.2451296 50.946822,27.3871866 C49.997885,26.5292436 49.2569453,25.4763294 48.7239807,24.2284123 C48.1910161,22.9804952 47.9245378,21.5636105 47.9245378,19.9777159 Z M71.2767789,2 L75.8004558,2 L75.8004558,19.2367688 L75.9564446,19.2367688 L84.574829,10.3844011 L89.5664725,10.3844011 L82.1570017,18.1058496 L90.385414,29.5320334 L85.471765,29.5320334 L79.4661939,20.8746518 L75.8004558,24.54039 L75.8004558,29.5320334 L71.2767789,29.5320334 L71.2767789,2 Z M95.4975943,8.79260572 L101.336541,8.79260572 C102.825533,8.79260572 104.186877,8.98404468 105.420613,9.36692834 C106.654349,9.74981199 107.717899,10.3560354 108.611294,11.1856166 C109.504689,12.0151979 110.201314,13.0787476 110.70119,14.3762978 C111.201066,15.673848 111.451,17.2372661 111.451,19.0665991 C111.451,20.8959322 111.206384,22.4699858 110.717144,23.7888073 C110.227903,25.1076288 109.541914,26.1924495 108.659154,27.0433021 C107.776395,27.8941547 106.739434,28.521649 105.54824,28.925804 C104.357046,29.329959 103.059516,29.5320334 101.655609,29.5320334 L95.4975943,29.5320334 L95.4975943,8.79260572 Z M101.04938,25.1288934 C101.70879,25.1288934 102.330967,25.0384917 102.915928,24.8576855 C103.500889,24.6768793 104.006075,24.3631321 104.431502,23.9164345 C104.856928,23.4697369 105.197264,22.8528781 105.45252,22.0658395 C105.707775,21.2788008 105.835401,20.2790641 105.835401,19.0665991 C105.835401,17.8541342 105.707775,16.865033 105.45252,16.0992656 C105.197264,15.3334983 104.856928,14.7379105 104.431502,14.3124842 C104.006075,13.8870579 103.500889,13.5945817 102.915928,13.4350468 C102.330967,13.275512 101.70879,13.1957458 101.04938,13.1957458 L100.985566,13.1957458 L100.985566,25.1288934 L101.04938,25.1288934 Z M116.456825,8.79260572 L123.284882,8.79260572 C124.369719,8.79260572 125.385409,8.87237195 126.331983,9.03190681 C127.278556,9.19144167 128.102807,9.46264686 128.804761,9.84553051 C129.506714,10.2284142 130.05976,10.7548713 130.463915,11.4249177 C130.86807,12.0949641 131.070144,12.9404862 131.070144,13.9615092 C131.070144,14.4082068 131.001014,14.8602155 130.86275,15.3175487 C130.724487,15.774882 130.511777,16.2109374 130.224614,16.625728 C129.937451,17.0405187 129.570527,17.4074433 129.123829,17.726513 C128.677131,18.0455828 128.155992,18.2795637 127.560395,18.4284629 L127.560395,18.5560901 C129.028116,18.8538885 130.12889,19.3909812 130.86275,20.1673841 C131.59661,20.9437871 131.963535,22.0232901 131.963535,23.4059256 C131.963535,24.4694913 131.756143,25.3894618 131.341352,26.1658648 C130.926562,26.9422677 130.352245,27.5803976 129.618384,28.0802735 C128.884524,28.5801494 128.028367,28.947074 127.049886,29.1810585 C126.071406,29.415043 125.029127,29.5320334 123.923019,29.5320334 L116.456825,29.5320334 L116.456825,8.79260572 Z M123.157255,16.9607496 C124.05065,16.9607496 124.699416,16.7586751 125.103571,16.3545201 C125.507726,15.9503652 125.7098,15.4292258 125.7098,14.7910864 C125.7098,14.1529469 125.507726,13.6956205 125.103571,13.4190934 C124.699416,13.1425664 124.05065,13.0043049 123.157255,13.0043049 L121.944796,13.0043049 L121.944796,16.9607496 L123.157255,16.9607496 Z M123.540137,25.3203343 C124.624974,25.3203343 125.406683,25.1182598 125.885287,24.7141048 C126.363892,24.3099499 126.603191,23.7249975 126.603191,22.9592302 C126.603191,22.1934629 126.363892,21.640417 125.885287,21.300076 C125.406683,20.9597349 124.624974,20.789567 123.540137,20.789567 L121.944796,20.789567 L121.944796,25.3203343 L123.540137,25.3203343 Z"></path>
        </g>
    </g>
</svg>